<?xml version="1.0" encoding="utf-8"?>
<!-- Generator: Adobe Illustrator 24.0.0, SVG Export Plug-In . SVG Version: 6.00 Build 0)  -->
<svg version="1.1" id="Layer_1" xmlns="http://www.w3.org/2000/svg" xmlns:xlink="http://www.w3.org/1999/xlink" x="0px" y="0px"
	 viewBox="0 0 3000 3000" style="enable-background:new 0 0 3000 3000;" xml:space="preserve">
<style type="text/css">
	.st0{display:none;fill:#4A4E4D;}
	.st1{font-family:'Poppins-Bold';}
	.st2{font-size:405.9634px;}
	.st3{display:none;fill:#F6CD61;}
	.st4{fill:#EFEDFF;}
	.st5{fill:#D4D4FF;}
	.st6{fill:#3DA4AB;}
	.st7{fill:#2C8284;}
	.st8{fill:#338F91;}
	.st9{fill:#FFBD86;}
	.st10{fill:#FED2A4;}
	.st11{fill:#313D40;}
	.st12{fill:#F6CD61;}
	.st13{fill:#1D5B5B;}
	.st14{fill:#FFB357;}
	.st15{fill:#CE857A;}
</style>
<text transform="matrix(1 0 0 1 638.7756 1784.6877)" class="st0 st1 st2">Math</text>
<text transform="matrix(1 0 0 1 1708.55 1784.6877)" class="st3 st1 st2">Mate</text>
<g>
	<g>
		<path class="st4" d="M2104.23,1858.21c-42.95-42.95-42.95-112.58,0-155.53l0.02-0.02c42.95-42.95,42.95-112.58,0-155.53
			l-77.79-77.79h-547.04H932.31l-77.79,77.79c-42.95,42.95-42.95,112.58,0,155.53l0.02,0.02c42.95,42.95,42.95,112.58,0,155.53
			l-0.02,0.02c-42.95,42.95-42.95,112.58,0,155.53l0.02,0.02c147.29,147.29,386.09,220.92,624.89,220.91
			c238.77-0.01,477.53-73.65,624.8-220.91l0.02-0.02c42.95-42.95,42.95-112.58,0-155.53L2104.23,1858.21z"/>
		<path class="st5" d="M932.31,1469.33l-77.79,77.79c-42.95,42.95-42.95,112.58,0,155.53l0.02,0.02
			c42.95,42.95,42.95,112.58,0,155.53l-0.02,0.02c-42.95,42.95-42.95,112.58,0,155.53l0.02,0.02
			c147.29,147.29,386.09,220.92,624.89,220.91v-765.38L932.31,1469.33z"/>
	</g>
	<g>
		<path class="st6" d="M1637.69,1991.03c-9.85-3.53-19.86-6.72-30.01-9.6c-40.79-11.57-83.81-17.8-128.27-17.8
			c-259.56,0-470.84,211.32-470.84,470.85h941.69C1950.27,2232.16,1821.24,2056.74,1637.69,1991.03L1637.69,1991.03z"/>
		<g>
			<path class="st7" d="M1607.69,1981.43c-40.79-11.57-83.81-17.8-128.27-17.8c-259.56,0-470.84,211.32-470.84,470.85h256.67
				c0-80.2,20.28-155.84,55.91-222.1c-0.02-0.01-0.04-0.02-0.07-0.03C1380.83,2101.24,1483.88,2016.58,1607.69,1981.43z"/>
			<path class="st8" d="M1450.26,2122.83h58.33v311.66h-58.33V2122.83z"/>
		</g>
	</g>
	<g>
		<g>
			<circle class="st9" cx="914.99" cy="1449.14" r="140.32"/>
			<circle class="st9" cx="2043.78" cy="1449.14" r="140.32"/>
		</g>
		<g>
			<path class="st10" d="M1738.17,947.45c-51.03-26.38-106.61-45.2-165.24-54.99c-30.43-5.08-61.68-7.72-93.55-7.72
				c-93.24,0-181.2,22.63-258.69,62.67c-181.56,93.81-305.69,283.26-305.69,501.73c0,101.28,26.7,196.31,73.42,278.48
				c71.72,126.15,190.6,221.98,332.71,263.41c50.21,14.63,103.33,22.5,158.26,22.5c31.87,0,63.12-2.65,93.55-7.74
				c22.02-3.68,43.66-8.61,64.74-14.76c142.13-41.43,260.99-137.27,332.71-263.43c46.71-82.17,73.4-177.19,73.4-278.46
				C2043.78,1230.71,1919.69,1041.27,1738.17,947.45L1738.17,947.45z"/>
			<path class="st9" d="M1102.08,1449.14c0-279.84,203.67-512.11,470.84-556.68c-30.43-5.08-61.67-7.72-93.55-7.72
				c-311.7,0-564.39,252.69-564.39,564.4c0,311.7,252.69,564.39,564.39,564.39c31.87,0,63.11-2.66,93.55-7.74
				C1305.75,1961.22,1102.08,1728.97,1102.08,1449.14z"/>
			<path class="st4" d="M1738.17,947.45c13.07,56.08,17.84,126.47-7.07,209.62c-8.78,29.3,5.69,60.55,33.74,72.74l116,50.41
				c29.95,13.02,49.98,41.64,52.43,74.21c6.52,86.43-2.23,174.01-26.61,258.61c-10.48,36.37,2.14,75.9,32.89,99.41
				c9.23,7.06,19.74,12.06,30.82,15.17c46.71-82.17,73.4-177.19,73.4-278.46C2043.78,1230.71,1919.69,1041.27,1738.17,947.45
				L1738.17,947.45z"/>
			<path class="st5" d="M1052.18,1613.03c-24.38-84.6-33.13-172.18-26.61-258.61c2.46-32.57,22.48-61.19,52.43-74.21l116-50.41
				c28.05-12.19,42.52-43.44,33.74-72.74c-24.92-83.17-20.14-153.57-7.07-209.65c-181.56,93.81-305.69,283.26-305.69,501.73
				c0,101.28,26.7,196.31,73.42,278.48c11.11-3.11,21.63-8.11,30.89-15.19C1050.05,1688.93,1062.66,1649.4,1052.18,1613.03z"/>
		</g>
		<g>
			<ellipse class="st9" cx="1171.7" cy="1641.14" rx="112.32" ry="89.45"/>
			<ellipse class="st9" cx="1786.61" cy="1641.14" rx="112.78" ry="89.45"/>
		</g>
		<g>
			<path class="st5" d="M1596.09,1676.79h-233.34c-64.44,0-116.67,48.17-116.67,155.56c0,120.92,65.93,252.8,138.51,229.88
				c21.17,49.17,55.74,81.23,94.82,81.23s73.65-32.06,94.82-81.23c72.58,22.92,138.51-108.96,138.51-229.88
				C1712.76,1724.96,1660.53,1676.79,1596.09,1676.79z"/>
			<path class="st4" d="M1665.59,1618.56c-26.78,0-51.89-11.49-70.79-30.45c-14.05-14.1-33.49-22.82-54.97-22.82
				c-24.4,0-46.17,11.26-60.4,28.87c-14.24-17.6-36-28.87-60.4-28.87c-21.48,0-40.91,8.72-54.97,22.82
				c-18.91,18.96-44.02,30.45-70.79,30.45c-12.05,0-21.04,11.05-18.68,22.87c10.63,53.38,57.74,93.62,114.25,93.62
				c36.6,0,69.25-16.9,90.6-43.3c21.35,26.4,54,43.3,90.6,43.3c56.51,0,103.62-40.23,114.25-93.62
				C1686.62,1629.61,1677.64,1618.56,1665.59,1618.56L1665.59,1618.56z"/>
		</g>
		<g>
			<path class="st11" d="M1236.53,1479.75c-16.11,0-29.17,13.06-29.17,29.17v46.67c0,16.11,13.06,29.17,29.17,29.17
				c16.11,0,29.17-13.06,29.17-29.17v-46.67C1265.69,1492.81,1252.63,1479.75,1236.53,1479.75z"/>
			<path class="st11" d="M1722.24,1479.75c-16.11,0-29.17,13.06-29.17,29.17v46.67c0,16.11,13.06,29.17,29.17,29.17
				c16.11,0,29.17-13.06,29.17-29.17v-46.67C1751.41,1492.81,1738.35,1479.75,1722.24,1479.75z"/>
		</g>
	</g>
	<g>
		<path class="st12" d="M2430.97,1615.96c-16.26-9.95-34.09-17.6-53.04-22.47c-4.88-18.94-12.52-36.77-22.47-53.04
			c-12.12-19.8-40.5-19.8-52.61,0c-9.96,16.26-17.59,34.1-22.47,53.04c-18.94,4.88-36.77,12.52-53.04,22.47
			c-9.9,6.06-14.85,16.18-14.85,26.3c0,10.12,4.95,20.25,14.85,26.3c16.26,9.95,34.11,17.63,53.05,22.51
			c4.88,18.94,12.51,36.74,22.46,53c12.12,19.8,40.49,19.8,52.61,0c9.95-16.26,17.59-34.06,22.46-53
			c18.94-4.88,36.78-12.55,53.05-22.51C2450.78,1656.45,2450.78,1628.08,2430.97,1615.96L2430.97,1615.96z"/>
		<path class="st12" d="M975.98,2020.73c-18.97-11.61-39.78-20.53-61.88-26.22c-5.69-22.1-14.61-42.9-26.22-61.88
			c-14.14-23.1-47.25-23.1-61.38,0c-11.61,18.97-20.53,39.78-26.22,61.88c-22.1,5.69-42.9,14.6-61.88,26.22
			c-11.55,7.07-17.32,18.88-17.32,30.69c0,11.81,5.78,23.62,17.33,30.69c18.97,11.61,39.79,20.57,61.89,26.26
			c5.69,22.1,14.6,42.86,26.21,61.84c14.14,23.1,47.24,23.1,61.38,0c11.61-18.97,20.51-39.74,26.21-61.84
			c22.1-5.69,42.91-14.65,61.88-26.26C999.08,2067.98,999.08,2034.87,975.98,2020.73z"/>
	</g>
	<g>
		<path class="st12" d="M668.58,1751.98h-23.33c-16.11,0-29.17,13.06-29.17,29.17c0,16.11,13.06,29.17,29.17,29.17h23.33
			c16.11,0,29.17-13.06,29.17-29.17C697.75,1765.04,684.69,1751.98,668.58,1751.98z"/>
		<path class="st12" d="M536.36,1751.98h-23.33c-16.11,0-29.17,13.06-29.17,29.17c0,16.11,13.06,29.17,29.17,29.17h23.33
			c16.11,0,29.17-13.06,29.17-29.17C565.53,1765.04,552.47,1751.98,536.36,1751.98z"/>
		<path class="st12" d="M590.8,1806.42c-16.11,0-29.17,13.06-29.17,29.17v23.33c0,16.11,13.06,29.17,29.17,29.17
			s29.17-13.06,29.17-29.17v-23.33C619.97,1819.48,606.91,1806.42,590.8,1806.42z"/>
		<path class="st12" d="M590.8,1755.87c16.11,0,29.17-13.06,29.17-29.17v-23.33c0-16.11-13.06-29.17-29.17-29.17
			s-29.17,13.06-29.17,29.17v23.33C561.64,1742.81,574.7,1755.87,590.8,1755.87z"/>
		<path class="st12" d="M2445.83,2004.44h-23.33c-16.11,0-29.17,13.06-29.17,29.17s13.06,29.17,29.17,29.17h23.33
			c16.11,0,29.17-13.06,29.17-29.17S2461.93,2004.44,2445.83,2004.44z"/>
		<path class="st12" d="M2313.6,2004.44h-23.33c-16.11,0-29.17,13.06-29.17,29.17s13.06,29.17,29.17,29.17h23.33
			c16.11,0,29.17-13.06,29.17-29.17S2329.71,2004.44,2313.6,2004.44z"/>
		<path class="st12" d="M2368.05,2058.88c-16.11,0-29.17,13.06-29.17,29.17v23.33c0,16.11,13.06,29.17,29.17,29.17
			s29.17-13.06,29.17-29.17v-23.33C2397.21,2071.94,2384.15,2058.88,2368.05,2058.88z"/>
		<path class="st12" d="M2368.05,2008.32c16.11,0,29.17-13.06,29.17-29.17v-23.33c0-16.11-13.06-29.17-29.17-29.17
			s-29.17,13.06-29.17,29.17v23.33C2338.88,1995.27,2351.94,2008.32,2368.05,2008.32z"/>
	</g>
	<g>
		<g>
			<path class="st7" d="M1911.82,855.86c-45.67-83.94-103.18-158.62-169.2-220.88c-34-32.06-70.24-60.85-108.3-85.89
				c-18.86-12.41-39.04-22.64-60.21-30.42c-29.86-10.96-61.69-16.99-94.69-16.99c-35.73,0-70.17,6.95-102.38,20.56
				c-13.32,5.63-26.26,12.37-38.75,20.27c-63.23,40.02-121.85,90.2-173.77,148.59c-38.64,43.46-73.56,91.48-103.89,143.27
				c-28.4,48.5-52.77,100.3-72.41,154.76c-35.83,99.36-55.92,207.58-55.92,320.74c100.05-113.79,226.74-188.32,361.69-223.62
				c60.7-15.88,123.06-23.83,185.43-23.83c201.01,0.01,402.01,82.49,547.04,247.45C2026.46,1143.75,1983.87,988.28,1911.82,855.86z"
				/>
			<path class="st13" d="M1574.11,518.68c-29.85-10.96-61.69-16.99-94.69-16.99c-35.73,0-70.17,6.95-102.38,20.56
				c-13.32,5.63-26.26,12.37-38.75,20.27c-63.23,40.02-121.85,90.2-173.77,148.59c-38.64,43.46-73.56,91.48-103.89,143.27
				c-28.4,48.5-52.77,100.3-72.41,154.76c-35.83,99.36-55.92,207.58-55.92,320.74c100.05-113.79,226.74-188.32,361.69-223.62
				c0.44-21.28,1.73-42.61,4.01-63.94C1319.19,823.95,1418.89,642.77,1574.11,518.68z"/>
		</g>
		<path class="st12" d="M1697.01,668.06l-28.4,57.88l-63.51,9.28c-49.24,7.19-68.9,68.04-33.27,102.97l45.96,45.05l-10.85,63.62
			c-8.41,49.32,43.06,86.92,87.1,63.64l56.81-30.03c51.33,27.14,34.43,18.21,56.81,30.03c44.03,23.28,95.51-14.32,87.1-63.64
			l-10.85-63.62l27.93-27.38c-45.67-83.94-103.18-158.62-169.2-220.88C1724.12,637.48,1706.62,648.47,1697.01,668.06z"/>
		<path class="st14" d="M1035.76,1065.36l35.11-18.56c31.73,16.77,21.28,11.25,35.11,18.56c27.21,14.39,59.02-8.85,53.82-39.33
			l-6.7-39.31l28.4-27.84c22.02-21.58,9.87-59.19-20.56-63.63l-39.25-5.74l-17.55-35.77c-8.55-17.43-27.35-23.9-43.49-19.35
			c-28.4,48.49-52.77,100.3-72.41,154.76l-6.29,36.89C976.74,1056.5,1008.55,1079.74,1035.76,1065.36z"/>
		<g>
			<path class="st12" d="M1486.54,601.08c-4.98-2.39-10.47-4.11-16.43-4.98l-59.49-8.7c-29.28-59.67-28.21-58.52-33.57-65.16
				c-13.32,5.63-26.26,12.37-38.75,20.27c-63.23,40.02-121.85,90.2-173.77,148.59c2.31,2.42,42.02,41.3,44.42,43.65l-10.16,59.59
				c-7.88,46.19,40.33,81.42,81.59,59.61l53.21-28.13c4.04,2.14,7.58,4.01,10.78,5.7c34.85,18.43,23.24,12.29,42.43,22.44
				c41.25,21.81,89.46-13.42,81.58-59.61l-10.16-59.59l43.05-42.2C1530.33,664.07,1520.12,617.17,1486.54,601.08z"/>
			<path class="st14" d="M1470.11,596.1l-59.49-8.7c-29.28-59.67-28.21-58.52-33.57-65.16c-13.32,5.63-26.26,12.37-38.75,20.27
				c-63.23,40.02-121.85,90.2-173.77,148.59c2.31,2.42,42.02,41.3,44.42,43.65l-10.16,59.59c-7.88,46.19,40.33,81.42,81.59,59.61
				l53.21-28.13c4.04,2.14,7.58,4.01,10.78,5.7c32.88-84.71,81.06-162.84,142.17-230.44
				C1481.56,598.69,1476.07,596.97,1470.11,596.1z"/>
		</g>
	</g>
	<g>
		<path class="st15" d="M2152.58,2015.4c23.66-42.5,8.39-96.13-34.11-119.8c-53.12-29.58-120.16-10.49-149.74,42.63
			c-33.06,59.38-17.48,132.67,33.67,173.95c13.74,11.09,25.01,24.94,32.39,40.98c12.33,26.81,13.49,57.42,3.23,85.09
			c-12.69,34.22-17.12,70.96-12.92,107.22l10.32,89h94.47l-6-69.07c-4.29-49.35,3.22-99.02,21.9-144.9
			C2172.42,2155.14,2174.83,2082.4,2152.58,2015.4L2152.58,2015.4z"/>
		<g>
			<circle class="st9" cx="2025.21" cy="2263.92" r="77.78"/>
			<circle class="st10" cx="2164.73" cy="2253.39" r="116.67"/>
		</g>
	</g>
</g>
</svg>
